<svg width="176" height="504" viewBox="0 0 176 504" fill="none" xmlns="http://www.w3.org/2000/svg">
<path fill-rule="evenodd" clip-rule="evenodd" d="M242.2 12.1496C169.757 -2.30927 75.446 -14.6282 28.0869 42.0657C-21.2901 101.175 34.3096 190.638 28.92 267.468C25.3378 318.534 -8.32257 364.681 1.93732 414.833C12.9035 468.438 50.6757 509.541 86.8414 550.6C133.624 603.712 171.451 685.582 242.2 687.602C312.691 689.615 347.306 601.408 404.14 559.659C460.523 518.241 541.326 506.568 573.334 444.359C607.026 378.877 608.463 294.109 574.351 228.845C541.816 166.599 460.904 155.088 402.08 116.711C347.41 81.044 306.214 24.9261 242.2 12.1496Z" fill="#AE652E" fill-opacity="0.25"/>
</svg>
