<svg width="263" height="255" viewBox="0 0 263 255" fill="none" xmlns="http://www.w3.org/2000/svg">
<path fill-rule="evenodd" clip-rule="evenodd" d="M172.994 8.66526C121.326 -1.647 54.063 -10.433 20.2859 30.0017C-14.9302 72.1592 24.7241 135.965 20.8801 190.761C18.3253 227.182 -5.68164 260.094 1.6358 295.864C9.45703 334.095 36.3966 363.41 62.1903 392.694C95.5562 430.574 122.535 488.965 172.994 490.405C223.269 491.841 247.957 428.931 288.491 399.155C328.704 369.615 386.334 361.29 409.162 316.922C433.192 270.219 434.216 209.762 409.887 163.215C386.683 118.82 328.976 110.61 287.022 83.2395C248.031 57.8014 218.649 17.7775 172.994 8.66526Z" fill="#AE652E" fill-opacity="0.25"/>
</svg>
