<svg width="304" height="543" viewBox="0 0 304 543" fill="none" xmlns="http://www.w3.org/2000/svg">
<path fill-rule="evenodd" clip-rule="evenodd" d="M61.8 -87.9527C134.243 -102.412 228.554 -114.73 275.913 -58.0366C325.29 1.07285 269.69 90.5353 275.08 167.366C278.662 218.432 312.323 264.579 302.063 314.731C291.096 368.336 253.324 409.439 217.159 450.498C170.376 503.61 132.549 585.48 61.8 587.5C-8.69147 589.512 -43.3061 501.306 -100.14 459.557C-156.523 418.139 -237.326 406.466 -269.334 344.257C-303.026 278.775 -304.463 194.007 -270.351 128.743C-237.816 66.4966 -156.904 54.9854 -98.0803 16.6086C-43.41 -19.0583 -2.2135 -75.1762 61.8 -87.9527Z" fill="#AE652E" fill-opacity="0.25"/>
</svg>
