<svg width="213" height="640" viewBox="0 0 213 640" fill="none" xmlns="http://www.w3.org/2000/svg">
<path fill-rule="evenodd" clip-rule="evenodd" d="M-29.2863 -35.4863C43.1569 -49.9453 137.468 -62.2642 184.827 -5.57026C234.204 53.5392 178.604 143.002 183.994 219.832C187.576 270.898 221.236 317.045 210.976 367.197C200.01 420.802 162.238 461.905 126.072 502.964C79.2896 556.076 41.4626 637.946 -29.2863 639.966C-99.7778 641.979 -134.393 553.772 -191.227 512.023C-247.61 470.605 -328.413 458.932 -360.421 396.723C-394.112 331.241 -395.549 246.473 -361.437 181.209C-328.903 118.963 -247.991 107.452 -189.167 69.0749C-134.496 33.408 -93.2999 -22.7099 -29.2863 -35.4863Z" fill="#AE652E" fill-opacity="0.25"/>
</svg>
