<svg width="508" height="320" viewBox="0 0 508 320" fill="none" xmlns="http://www.w3.org/2000/svg">
<path fill-rule="evenodd" clip-rule="evenodd" d="M357.439 12.1496C429.882 -2.30927 524.193 -14.6282 571.552 42.0657C620.929 101.175 565.329 190.638 570.719 267.468C574.301 318.534 607.961 364.681 597.701 414.833C586.735 468.438 548.963 509.541 512.797 550.6C466.015 603.712 428.188 685.582 357.439 687.602C286.947 689.615 252.332 601.408 195.498 559.659C139.115 518.241 58.3121 506.568 26.3044 444.359C-7.38734 378.877 -8.82402 294.109 25.2879 228.845C57.8224 166.599 138.734 155.088 197.558 116.711C252.229 81.044 293.425 24.9261 357.439 12.1496Z" fill="#AE652E" fill-opacity="0.25"/>
</svg>
