<svg width="592" height="280" viewBox="0 0 592 280" fill="none" xmlns="http://www.w3.org/2000/svg">
<path fill-rule="evenodd" clip-rule="evenodd" d="M185.098 -106.1C257.63 -113.898 331.532 -96.215 392.748 -63.1739C456.087 -28.9873 549.256 21.8931 577.018 80C606.172 141.02 587.536 212.356 552.526 271.241C518.238 328.913 421.434 331.889 358.239 369.393C295.538 406.603 260.606 475.913 185.098 489.292C103.602 503.733 2.64996 494.006 -52.0418 442.092C-106.519 390.383 -50.8073 308.008 -74.9576 242.448C-98.2994 179.082 -209.437 136.474 -188.144 72.6195C-167.103 9.52206 -55.2313 10.4579 13.3555 -22.3835C72.3069 -50.6112 117.514 -98.8333 185.098 -106.1Z" fill="#333333"/>
</svg>
